<svg id="Capa_1" enable-background="new 0 0 512 512" viewBox="0 0 512 512" xmlns="http://www.w3.org/2000/svg"><g><path d="m256 0-90 256 90 256 153.124-196.255c27.396-34.897 41.876-76.65 41.876-120.745 0-107.523-87.477-195-195-195z" fill="#F46D1E"></path><path d="m61 195c0 44.095 14.48 85.848 41.849 120.709l153.151 196.291v-512c-107.523 0-195 87.477-195 195z" fill="#F46D1E"></path><path d="m256 59.984-67.5 135 67.5 135c74.559 0 135-60.442 135-135s-60.441-135-135-135z" fill="#fff"></path><path d="m121 194.984c0 74.558 60.441 135 135 135v-270c-74.559 0-135 60.441-135 135z" fill="#fff"></path><path d="m256 149.984-22.5 45 22.5 45c24.853 0 45-20.147 45-45s-20.147-45-45-45z" fill="#F46D1E"></path><path d="m211 194.984c0 24.853 20.147 45 45 45v-90c-24.853 0-45 20.147-45 45z" fill="#F46D1E"></path></g></svg>