<svg width="62" height="66" viewBox="0 0 62 66" fill="none" xmlns="http://www.w3.org/2000/svg">
<path d="M62 31C62 48.1208 40 57 31 66C23.5 58.5 0 48.1208 0 31C0 13.8792 13.8792 0 31 0C48.1208 0 62 13.8792 62 31Z" fill="#FF3333"/>
<path d="M40.8333 24.0415H20.1666C18.7399 24.0415 17.5833 25.1981 17.5833 26.6248V39.5415C17.5833 40.9682 18.7399 42.1248 20.1666 42.1248H40.8333C42.26 42.1248 43.4166 40.9682 43.4166 39.5415V26.6248C43.4166 25.1981 42.26 24.0415 40.8333 24.0415Z" stroke="#E4E4E4" stroke-width="2" stroke-linecap="round" stroke-linejoin="round"/>
<path d="M35.6666 42.125V21.4583C35.6666 20.7732 35.3945 20.1161 34.91 19.6316C34.4255 19.1472 33.7685 18.875 33.0833 18.875H27.9166C27.2315 18.875 26.5744 19.1472 26.09 19.6316C25.6055 20.1161 25.3333 20.7732 25.3333 21.4583V42.125" stroke="#E4E4E4" stroke-width="2" stroke-linecap="round" stroke-linejoin="round"/>
</svg>
