<svg width="101" height="123" viewBox="0 0 101 123" fill="none" xmlns="http://www.w3.org/2000/svg">
<path d="M2.89692 67.9748C7.7676 104.172 46.881 111.128 46.881 111.128C46.881 111.128 5.02786 108.399 0.38149 67.6281C-3.41571 34.3374 21.8196 10.4363 45.5641 11.7409L42.8725 0L58.1734 18.1976L39.7482 32.1842L43.8818 22.1277C28.8372 21.6984 -0.643928 41.6363 2.89692 67.9748Z" fill="#EE7507"/>
<path d="M97.2769 54.1531C92.4062 17.9561 53.2928 10.9999 53.2928 10.9999C53.2928 10.9999 95.146 13.7288 99.7923 54.4999C103.59 87.7905 78.3542 111.692 54.6097 110.387L57.3014 122.128L42.0004 103.93L60.4257 89.9437L56.292 100C71.3366 100.43 100.818 80.4917 97.2769 54.1531Z" fill="#EE7507"/>
</svg>
