<svg width="34" height="34" viewBox="0 0 34 34" fill="none" xmlns="http://www.w3.org/2000/svg">
<path d="M17 2.83325C9.18004 2.83325 2.83337 9.17992 2.83337 16.9999C2.83337 24.8199 9.18004 31.1666 17 31.1666C24.82 31.1666 31.1667 24.8199 31.1667 16.9999C31.1667 9.17992 24.82 2.83325 17 2.83325ZM23.5734 12.4666C23.3609 14.7049 22.44 20.1449 21.9725 22.6524C21.7742 23.7149 21.3775 24.0691 21.0092 24.1116C20.1875 24.1824 19.5642 23.5733 18.7709 23.0491C17.5242 22.2274 16.8159 21.7174 15.6117 20.9241C14.2092 20.0033 15.1159 19.4933 15.9234 18.6716C16.1359 18.4591 19.7625 15.1583 19.8334 14.8608C19.8432 14.8157 19.8419 14.7689 19.8296 14.7245C19.8172 14.68 19.7942 14.6393 19.7625 14.6058C19.6775 14.5349 19.5642 14.5633 19.465 14.5774C19.3375 14.6058 17.3542 15.9233 13.4867 18.5299C12.92 18.9124 12.41 19.1108 11.9567 19.0966C11.4467 19.0824 10.4834 18.8133 9.76087 18.5724C8.86837 18.2891 8.17421 18.1333 8.23087 17.6374C8.25921 17.3824 8.61337 17.1274 9.27921 16.8583C13.4159 15.0591 16.1642 13.8691 17.5384 13.3024C21.4767 11.6591 22.2842 11.3758 22.8225 11.3758C22.9359 11.3758 23.205 11.4041 23.375 11.5458C23.5167 11.6591 23.5592 11.8149 23.5734 11.9283C23.5592 12.0133 23.5875 12.2683 23.5734 12.4666Z" fill="#F46D1E"/>
</svg>
