<svg width="115" height="37" viewBox="0 0 115 37" fill="none" xmlns="http://www.w3.org/2000/svg">
<path d="M102.03 18.7634C102.03 23.0754 98.5273 26.5778 94.2153 26.5778H86.222C84.0189 26.5778 81.3168 28.1407 80.2153 30.0519L76.4305 36.6047H94.2247C104.063 36.6047 112.066 28.602 112.066 18.7634H102.03Z" fill="#EF7918"/>
<path d="M86.4574 18.7634C86.4574 14.4513 89.9597 10.949 94.2718 10.949H102.265C104.468 10.949 107.17 9.38609 108.272 7.47486L112.057 0.922058H94.2718C84.4332 0.922058 76.4305 8.92476 76.4305 18.7634H86.4574Z" fill="#EF7918"/>
<path d="M64.9537 26.5778H56.9604C52.6578 26.5778 49.1554 23.0754 49.146 18.7634C49.146 14.4513 52.6484 10.949 56.9604 10.949H64.9537C67.1568 10.949 69.8683 9.38609 70.9698 7.47486L74.7546 0.922058H56.9604C47.1218 0.922058 39.1191 8.92476 39.1191 18.7634C39.1191 28.602 47.1218 36.6047 56.9604 36.6047H74.7546L70.9698 30.0425C69.8683 28.1501 67.1568 26.5778 64.9537 26.5778Z" fill="#EF7918"/>
<path d="M25.6651 10.7513V18.7446C25.6651 23.0472 22.1628 26.559 17.8507 26.559C13.5387 26.559 10.0363 23.0472 10.0363 18.7446V10.7513C10.0363 8.54818 8.47345 5.83667 6.56221 4.73512L0 0.950317V18.7446C0 28.5832 8.0027 36.5859 17.8413 36.5859C27.6799 36.5859 35.6826 28.5832 35.6826 18.7446V0.950317L29.1298 4.73512C27.228 5.83667 25.6651 8.53876 25.6651 10.7513Z" fill="#EF7918"/>
</svg>
