<svg width="274" height="37" viewBox="0 0 274 37" fill="none" xmlns="http://www.w3.org/2000/svg">
<path d="M141.516 9.48967C141.516 10.0075 141.403 10.4594 141.177 10.8548C140.951 11.2597 140.631 11.5704 140.226 11.7963C139.812 12.0223 139.332 12.1353 138.786 12.1353C138.24 12.1353 137.759 12.0223 137.345 11.7963C136.931 11.5704 136.611 11.2597 136.385 10.8548C136.159 10.4594 136.046 10.0075 136.046 9.48967V0.987976H133.203V9.72504C133.203 10.7042 133.429 11.561 133.899 12.3047C134.361 13.0391 135.01 13.6134 135.848 14.0183C136.686 14.4325 137.665 14.6302 138.776 14.6302C139.887 14.6302 140.866 14.4231 141.704 14.0183C142.542 13.6134 143.192 13.0297 143.653 12.3047C144.124 11.5704 144.35 10.7136 144.35 9.72504V0.987976H141.507V9.48967H141.516Z" fill="white"/>
<path d="M154.311 4.68801C153.793 4.37732 153.172 4.22668 152.475 4.22668C151.731 4.22668 151.091 4.39615 150.564 4.7445C150.037 5.08344 149.66 5.55419 149.443 6.13792H149.33V4.35849H146.657V14.4513H149.453V8.61404C149.462 8.18096 149.538 7.81377 149.698 7.50308C149.858 7.19239 150.084 6.95701 150.366 6.79696C150.658 6.63691 150.987 6.55217 151.364 6.55217C151.92 6.55217 152.371 6.72164 152.682 7.06999C153.002 7.41835 153.162 7.89851 153.153 8.5199V14.4419H155.949V8.02091C155.949 7.23005 155.808 6.56159 155.516 5.99669C155.234 5.43179 154.829 4.98929 154.311 4.68801Z" fill="white"/>
<path d="M160.958 4.35852H158.162V14.4513H160.958V4.35852Z" fill="white"/>
<path d="M159.565 0.215942C159.15 0.215942 158.792 0.357164 158.491 0.639612C158.199 0.92206 158.049 1.25159 158.049 1.6376C158.049 2.02361 158.199 2.36255 158.491 2.63558C158.792 2.91803 159.141 3.04984 159.565 3.04984C159.979 3.04984 160.337 2.90862 160.628 2.63558C160.93 2.36255 161.071 2.02361 161.071 1.6376C161.071 1.25159 160.93 0.92206 160.628 0.639612C160.337 0.366579 159.979 0.215942 159.565 0.215942Z" fill="white"/>
<path d="M172.115 6.70281C171.71 5.92137 171.145 5.3094 170.401 4.87631C169.657 4.43381 168.772 4.22668 167.756 4.22668C166.739 4.22668 165.854 4.44322 165.11 4.87631C164.366 5.3094 163.792 5.92137 163.396 6.70281C162.992 7.49367 162.794 8.3975 162.794 9.44256C162.794 10.4782 162.992 11.382 163.396 12.1635C163.801 12.9543 164.366 13.5569 165.11 13.99C165.854 14.4231 166.739 14.6396 167.756 14.6396C168.772 14.6396 169.657 14.4231 170.401 13.99C171.145 13.5475 171.719 12.9449 172.115 12.1635C172.519 11.382 172.717 10.4782 172.717 9.44256C172.717 8.3975 172.519 7.49367 172.115 6.70281ZM169.629 10.996C169.469 11.4574 169.234 11.8151 168.923 12.0787C168.612 12.3424 168.226 12.4836 167.756 12.4836C167.285 12.4836 166.899 12.3518 166.579 12.0787C166.259 11.8151 166.023 11.4574 165.863 10.996C165.703 10.5347 165.628 10.0075 165.628 9.43315C165.628 8.84942 165.703 8.32219 165.863 7.86085C166.023 7.39952 166.259 7.04175 166.579 6.76872C166.899 6.49568 167.285 6.36387 167.756 6.36387C168.217 6.36387 168.603 6.49568 168.923 6.76872C169.234 7.03233 169.469 7.39952 169.629 7.86085C169.789 8.32219 169.864 8.84942 169.864 9.43315C169.874 10.0075 169.789 10.5347 169.629 10.996Z" fill="white"/>
<path d="M182.198 4.68801C181.68 4.37732 181.068 4.22668 180.362 4.22668C179.609 4.22668 178.978 4.39615 178.451 4.7445C177.924 5.08344 177.547 5.55419 177.33 6.13792H177.217V4.35849H174.544V14.4513H177.34V8.61404C177.349 8.18096 177.434 7.81377 177.585 7.50308C177.745 7.19239 177.971 6.95701 178.253 6.79696C178.545 6.63691 178.875 6.55217 179.251 6.55217C179.807 6.55217 180.249 6.72164 180.569 7.06999C180.889 7.41835 181.049 7.89851 181.04 8.5199V14.4419H183.836V8.02091C183.836 7.23005 183.695 6.56159 183.403 5.99669C183.13 5.43179 182.725 4.98929 182.198 4.68801Z" fill="white"/>
<path d="M200.529 13.1803C201.028 12.7284 201.423 12.22 201.715 11.6457C202.016 11.0714 202.195 10.4782 202.271 9.86626L199.39 9.84743C199.324 10.2146 199.211 10.5253 199.041 10.8078C198.872 11.0902 198.665 11.3256 198.41 11.5233C198.156 11.7116 197.864 11.8622 197.535 11.9658C197.205 12.0694 196.857 12.1164 196.48 12.1164C195.803 12.1164 195.2 11.947 194.682 11.6174C194.164 11.2879 193.769 10.7889 193.477 10.1393C193.185 9.48966 193.044 8.67998 193.044 7.71965C193.044 6.78757 193.185 5.99672 193.468 5.33767C193.75 4.68804 194.155 4.17963 194.673 3.84069C195.191 3.50176 195.793 3.32287 196.49 3.32287C196.876 3.32287 197.234 3.37936 197.563 3.49234C197.893 3.60532 198.185 3.75596 198.439 3.96309C198.693 4.17021 198.9 4.415 199.06 4.70687C199.22 4.99873 199.333 5.33767 199.38 5.70486H202.261C202.167 4.92342 201.96 4.23612 201.63 3.63356C201.301 3.03101 200.887 2.51319 200.369 2.09893C199.851 1.68467 199.258 1.36456 198.589 1.1386C197.921 0.92206 197.196 0.809082 196.415 0.809082C195.228 0.809082 194.164 1.08212 193.223 1.61877C192.272 2.15542 191.528 2.94627 190.973 3.9725C190.417 5.00815 190.144 6.25092 190.144 7.71965C190.144 9.18838 190.417 10.4312 190.963 11.4574C191.509 12.493 192.253 13.2745 193.204 13.8111C194.146 14.3572 195.219 14.6302 196.415 14.6302C197.271 14.6302 198.053 14.4984 198.74 14.2442C199.437 13.9806 200.03 13.6322 200.529 13.1803Z" fill="white"/>
<path d="M209.002 6.55219C209.567 6.55219 210.019 6.72166 210.33 7.07001C210.65 7.40895 210.81 7.89853 210.801 8.51991V14.4419H213.597V8.02092C213.597 7.23007 213.456 6.55219 213.164 5.98729C212.872 5.42239 212.467 4.97989 211.94 4.67861C211.413 4.37734 210.801 4.2267 210.104 4.2267C209.341 4.2267 208.701 4.39616 208.193 4.7351C207.684 5.07404 207.317 5.54479 207.091 6.13793H206.978V0.997375H204.257V14.4513H207.063V8.61406C207.063 8.18097 207.148 7.81379 207.317 7.5031C207.487 7.1924 207.703 6.95703 208.004 6.79698C208.287 6.63692 208.626 6.55219 209.002 6.55219Z" fill="white"/>
<path d="M223.671 5.4977C223.238 5.07403 222.739 4.75392 222.164 4.54679C221.59 4.33966 220.969 4.22668 220.3 4.22668C219.312 4.22668 218.446 4.44323 217.721 4.88573C216.986 5.31881 216.412 5.93079 216.016 6.71223C215.612 7.49367 215.414 8.40691 215.414 9.44256C215.414 10.5064 215.612 11.4291 216.016 12.2011C216.421 12.9826 216.996 13.5851 217.739 13.9994C218.483 14.4231 219.378 14.6302 220.413 14.6302C221.251 14.6302 221.976 14.4984 222.616 14.2442C223.257 13.99 223.774 13.6322 224.189 13.1709C224.593 12.7001 224.857 12.1635 224.989 11.5421L222.4 11.3726C222.306 11.6268 222.164 11.8434 221.976 12.0128C221.788 12.1917 221.571 12.3235 221.317 12.4083C221.053 12.493 220.771 12.5401 220.46 12.5401C219.99 12.5401 219.585 12.4365 219.246 12.2388C218.907 12.0411 218.643 11.7586 218.455 11.4009C218.267 11.0337 218.173 10.6006 218.173 10.111V10.1016H225.045V9.32958C225.045 8.47282 224.923 7.71963 224.688 7.07941C224.443 6.45802 224.104 5.93079 223.671 5.4977ZM218.182 8.37867C218.201 8.0209 218.285 7.68197 218.455 7.38069C218.643 7.05117 218.897 6.79696 219.218 6.59925C219.547 6.40153 219.924 6.30739 220.347 6.30739C220.752 6.30739 221.11 6.40154 221.421 6.58042C221.731 6.7593 221.967 7.00409 222.146 7.31478C222.315 7.62548 222.409 7.98324 222.409 8.38809H218.182V8.37867Z" fill="white"/>
<path d="M238.358 4.22668C237.614 4.22668 236.974 4.39615 236.437 4.7445C235.901 5.09285 235.524 5.55419 235.317 6.13792H235.214C235.053 5.55419 234.724 5.08344 234.244 4.7445C233.754 4.40556 233.17 4.22668 232.474 4.22668C231.796 4.22668 231.203 4.39615 230.713 4.7445C230.224 5.08344 229.875 5.55419 229.668 6.13792H229.555V4.35849H226.891V14.4513H229.687V8.3975C229.687 8.02091 229.762 7.7008 229.903 7.41835C230.045 7.14532 230.242 6.92877 230.487 6.76872C230.732 6.60866 231.014 6.53334 231.325 6.53334C231.786 6.53334 232.154 6.67457 232.436 6.97585C232.719 7.26771 232.86 7.66314 232.86 8.16213V14.4607H235.571V8.30335C235.571 7.77611 235.713 7.35244 236.004 7.03233C236.287 6.71223 236.682 6.55217 237.191 6.55217C237.633 6.55217 238.01 6.6934 238.302 6.97585C238.603 7.25829 238.754 7.68196 238.754 8.23744V14.4701H241.54V7.68197C241.54 6.58983 241.248 5.74248 240.655 5.13993C240.072 4.52796 239.3 4.22668 238.358 4.22668Z" fill="white"/>
<path d="M246.549 4.35852H243.753V14.4513H246.549V4.35852Z" fill="white"/>
<path d="M245.156 0.215942C244.741 0.215942 244.384 0.357164 244.082 0.639612C243.791 0.92206 243.64 1.25159 243.64 1.6376C243.64 2.02361 243.791 2.36255 244.082 2.63558C244.384 2.91803 244.732 3.04984 245.156 3.04984C245.57 3.04984 245.928 2.90862 246.22 2.63558C246.521 2.36255 246.662 2.02361 246.662 1.6376C246.662 1.25159 246.521 0.92206 246.22 0.639612C245.928 0.366579 245.57 0.215942 245.156 0.215942Z" fill="white"/>
<path d="M252.245 6.75932C252.565 6.53336 252.942 6.41097 253.375 6.41097C253.883 6.41097 254.298 6.56161 254.618 6.8723C254.938 7.18299 255.136 7.58783 255.201 8.08683H257.838C257.8 7.30539 257.583 6.62751 257.197 6.04379C256.811 5.46947 256.284 5.01756 255.625 4.69745C254.966 4.37734 254.194 4.21729 253.309 4.21729C252.283 4.21729 251.407 4.43383 250.663 4.87633C249.929 5.31883 249.355 5.93081 248.95 6.71225C248.545 7.49369 248.347 8.39752 248.347 9.43316C248.347 10.45 248.545 11.3538 248.94 12.1352C249.336 12.9261 249.901 13.5287 250.645 13.9806C251.388 14.4231 252.273 14.6396 253.309 14.6396C254.203 14.6396 254.985 14.4796 255.644 14.15C256.303 13.8205 256.811 13.3592 257.188 12.7849C257.565 12.2012 257.772 11.5233 257.819 10.7513H255.183C255.126 11.0996 255.023 11.4103 254.853 11.6551C254.684 11.9093 254.476 12.0976 254.213 12.2294C253.959 12.3612 253.667 12.4271 253.347 12.4271C252.914 12.4271 252.537 12.3141 252.207 12.0693C251.887 11.834 251.633 11.4856 251.454 11.0337C251.275 10.5818 251.191 10.0357 251.191 9.3955C251.191 8.75529 251.275 8.21863 251.454 7.76672C251.671 7.33363 251.916 6.99469 252.245 6.75932Z" fill="white"/>
<path d="M266.914 5.03637C266.509 4.76334 266.057 4.55621 265.539 4.4244C265.021 4.29259 264.485 4.22668 263.929 4.22668C263.119 4.22668 262.413 4.33966 261.801 4.59387C261.189 4.83866 260.69 5.17759 260.304 5.62951C259.918 6.08143 259.664 6.60867 259.532 7.22064L262.121 7.42776C262.216 7.09824 262.413 6.81579 262.715 6.59925C263.006 6.37329 263.411 6.26973 263.92 6.26973C264.4 6.26973 264.767 6.3827 265.031 6.60866C265.294 6.83462 265.417 7.15473 265.417 7.56898V7.61606C265.417 7.83261 265.341 7.99266 265.172 8.10564C265.012 8.2092 264.748 8.29394 264.39 8.35043C264.033 8.3975 263.552 8.46341 262.969 8.5199C262.47 8.56697 261.99 8.6517 261.538 8.7741C261.086 8.88708 260.681 9.06596 260.333 9.30134C259.975 9.53671 259.692 9.83799 259.495 10.224C259.288 10.6006 259.184 11.0713 259.184 11.6362C259.184 12.3047 259.325 12.8602 259.617 13.3027C259.909 13.7452 260.304 14.0841 260.813 14.3101C261.321 14.536 261.895 14.649 262.536 14.649C263.035 14.649 263.477 14.5831 263.854 14.4513C264.24 14.3195 264.56 14.1312 264.833 13.8864C265.106 13.6416 265.323 13.378 265.483 13.0579H265.558V14.4513H268.213V7.64431C268.213 7.04175 268.1 6.52393 267.865 6.09084C267.639 5.66717 267.318 5.3094 266.914 5.03637ZM265.435 10.8454C265.435 11.1937 265.351 11.5233 265.162 11.7963C264.984 12.0787 264.739 12.2953 264.419 12.4648C264.108 12.6248 263.741 12.7095 263.327 12.7095C262.893 12.7095 262.545 12.606 262.272 12.4083C261.99 12.2106 261.858 11.9187 261.858 11.5327C261.858 11.2691 261.924 11.0525 262.065 10.8736C262.197 10.6947 262.394 10.5535 262.639 10.45C262.884 10.3464 263.166 10.2711 263.496 10.224C263.647 10.2052 263.816 10.1863 264.014 10.1487C264.202 10.1204 264.39 10.0922 264.579 10.0545C264.767 10.0169 264.936 9.97921 265.087 9.92272C265.238 9.88506 265.36 9.82857 265.445 9.77208V10.8454H265.435Z" fill="white"/>
<path d="M142.279 30.1931C141.921 29.873 141.497 29.6 141.008 29.3834C140.518 29.1575 139.981 28.988 139.388 28.8562L138.183 28.5643C137.891 28.4984 137.609 28.4231 137.355 28.3289C137.091 28.2348 136.865 28.1218 136.667 27.99C136.47 27.8582 136.319 27.7076 136.206 27.5287C136.093 27.3498 136.046 27.1427 136.055 26.8979C136.055 26.606 136.14 26.3518 136.31 26.1258C136.479 25.8999 136.724 25.721 137.044 25.5892C137.364 25.4574 137.759 25.4009 138.221 25.4009C138.908 25.4009 139.445 25.5515 139.84 25.834C140.245 26.1258 140.471 26.5401 140.518 27.0673H143.248C143.23 26.2671 143.022 25.561 142.599 24.9584C142.185 24.3464 141.601 23.8757 140.857 23.5273C140.113 23.1884 139.238 23.0189 138.24 23.0189C137.26 23.0189 136.385 23.1884 135.613 23.5273C134.841 23.8663 134.238 24.3464 133.796 24.9584C133.353 25.5704 133.137 26.2765 133.137 27.0956C133.127 28.0936 133.457 28.8844 134.116 29.4682C134.775 30.0519 135.669 30.485 136.809 30.7674L138.277 31.1346C138.767 31.257 139.181 31.3888 139.52 31.53C139.859 31.6713 140.113 31.8501 140.292 32.0573C140.471 32.2644 140.556 32.5186 140.556 32.8199C140.556 33.1494 140.462 33.4318 140.264 33.6766C140.066 33.9308 139.784 34.1191 139.435 34.2604C139.078 34.4016 138.663 34.4769 138.174 34.4769C137.684 34.4769 137.242 34.3922 136.856 34.2509C136.47 34.1003 136.159 33.8743 135.933 33.5731C135.707 33.2718 135.566 32.8952 135.547 32.4433H132.788C132.807 33.413 133.043 34.2227 133.495 34.8723C133.946 35.5314 134.568 36.021 135.368 36.3505C136.178 36.68 137.119 36.8495 138.202 36.8495C139.294 36.8495 140.236 36.68 141.017 36.3505C141.789 36.021 142.392 35.5502 142.806 34.9476C143.22 34.3451 143.427 33.6296 143.437 32.8105C143.427 32.2456 143.333 31.7466 143.135 31.3135C142.909 30.8804 142.636 30.5132 142.279 30.1931Z" fill="white"/>
<path d="M152.475 27.0862C151.731 26.6531 150.846 26.4365 149.829 26.4365C148.813 26.4365 147.928 26.6531 147.184 27.0862C146.44 27.5192 145.866 28.1312 145.461 28.9127C145.056 29.6941 144.858 30.6073 144.858 31.6524C144.858 32.688 145.056 33.5919 145.461 34.3733C145.866 35.1548 146.44 35.7667 147.184 36.1998C147.928 36.6423 148.803 36.8589 149.829 36.8589C150.846 36.8589 151.731 36.6423 152.475 36.1998C153.219 35.7667 153.793 35.1548 154.189 34.3733C154.593 33.5919 154.791 32.6786 154.791 31.6524C154.791 30.6073 154.593 29.6941 154.189 28.9127C153.793 28.1312 153.219 27.5192 152.475 27.0862ZM151.712 33.1965C151.552 33.6578 151.317 34.0156 151.006 34.2792C150.696 34.5428 150.31 34.6746 149.848 34.6746C149.378 34.6746 148.982 34.5428 148.662 34.2792C148.351 34.0061 148.106 33.6484 147.946 33.1965C147.786 32.7351 147.711 32.2173 147.711 31.6242C147.711 31.0404 147.786 30.5132 147.946 30.0519C148.106 29.5905 148.351 29.2233 148.662 28.9597C148.982 28.6961 149.378 28.5549 149.848 28.5549C150.31 28.5549 150.696 28.6867 151.006 28.9597C151.317 29.2328 151.552 29.5905 151.712 30.0519C151.872 30.5132 151.948 31.0404 151.948 31.6242C151.957 32.2173 151.872 32.7445 151.712 33.1965Z" fill="white"/>
<path d="M159.423 23.1978H156.627V36.6517H159.423V23.1978Z" fill="white"/>
<path d="M168.132 32.3585C168.132 32.8104 168.047 33.1964 167.868 33.4977C167.69 33.799 167.454 34.0344 167.153 34.1944C166.861 34.3545 166.541 34.4204 166.202 34.4204C165.675 34.4204 165.251 34.2509 164.931 33.9026C164.611 33.5542 164.451 33.0835 164.451 32.4903V26.5589H161.655V32.9893C161.664 33.7802 161.805 34.458 162.088 35.0229C162.38 35.5878 162.775 36.0209 163.293 36.3316C163.801 36.6423 164.394 36.7929 165.072 36.7929C165.825 36.7929 166.475 36.6141 167.002 36.2563C167.53 35.8985 167.906 35.4184 168.141 34.8252H168.245V36.6611H170.928V26.5683H168.132V32.3585Z" fill="white"/>
<path d="M177.971 34.5051C177.839 34.524 177.707 34.5334 177.575 34.5334C177.387 34.5334 177.218 34.5051 177.086 34.4486C176.944 34.3922 176.832 34.298 176.756 34.1474C176.671 34.0061 176.634 33.8084 176.634 33.5448V28.6585H178.536V26.5589H176.634V24.1393H173.838V26.5589H172.454V28.6585H173.838V33.912C173.828 34.571 173.969 35.1171 174.252 35.5502C174.534 35.9833 174.93 36.3034 175.429 36.5105C175.937 36.7176 176.521 36.8118 177.199 36.7836C177.566 36.7647 177.877 36.7271 178.131 36.6706C178.385 36.6047 178.583 36.567 178.724 36.5199L178.281 34.4298C178.206 34.4675 178.112 34.4769 177.971 34.5051Z" fill="white"/>
<path d="M183.149 26.5589H180.353V36.6517H183.149V26.5589Z" fill="white"/>
<path d="M181.765 22.4257C181.351 22.4257 180.993 22.5669 180.692 22.84C180.4 23.1224 180.249 23.4519 180.249 23.838C180.249 24.2334 180.4 24.5629 180.692 24.836C180.983 25.1184 181.341 25.2596 181.765 25.2596C182.179 25.2596 182.537 25.1184 182.829 24.836C183.13 24.5535 183.271 24.224 183.271 23.838C183.271 23.4519 183.13 23.1224 182.829 22.84C182.528 22.5669 182.179 22.4257 181.765 22.4257Z" fill="white"/>
<path d="M192.592 27.0862C191.848 26.6531 190.963 26.4365 189.946 26.4365C188.93 26.4365 188.045 26.6531 187.301 27.0862C186.557 27.5192 185.983 28.1312 185.587 28.9127C185.183 29.6941 184.985 30.6073 184.985 31.6524C184.985 32.688 185.183 33.5919 185.587 34.3733C185.992 35.1548 186.557 35.7667 187.301 36.1998C188.045 36.6423 188.93 36.8589 189.946 36.8589C190.963 36.8589 191.848 36.6423 192.592 36.1998C193.336 35.7667 193.91 35.1548 194.306 34.3733C194.71 33.5919 194.908 32.6786 194.908 31.6524C194.908 30.6073 194.71 29.6941 194.306 28.9127C193.91 28.1312 193.336 27.5192 192.592 27.0862ZM191.829 33.1965C191.669 33.6578 191.434 34.0156 191.123 34.2792C190.813 34.5428 190.427 34.6746 189.956 34.6746C189.485 34.6746 189.099 34.5428 188.779 34.2792C188.459 34.0061 188.224 33.6484 188.063 33.1965C187.903 32.7351 187.828 32.2173 187.828 31.6242C187.828 31.0404 187.903 30.5132 188.063 30.0519C188.224 29.5905 188.459 29.2233 188.779 28.9597C189.099 28.6961 189.485 28.5549 189.956 28.5549C190.417 28.5549 190.803 28.6867 191.123 28.9597C191.434 29.2328 191.669 29.5905 191.829 30.0519C191.99 30.5132 192.065 31.0404 192.065 31.6242C192.065 32.2173 191.99 32.7445 191.829 33.1965Z" fill="white"/>
<path d="M204.398 26.8885C203.881 26.5872 203.269 26.4271 202.563 26.4271C201.809 26.4271 201.179 26.5966 200.651 26.9449C200.124 27.2839 199.747 27.7546 199.531 28.3384H199.418V26.5589H196.744V36.6518H199.54V30.8145C199.55 30.3814 199.625 30.0048 199.785 29.7035C199.945 29.3928 200.171 29.1575 200.454 28.9974C200.736 28.8279 201.075 28.7526 201.452 28.7526C202.007 28.7526 202.45 28.9315 202.77 29.2799C203.09 29.6282 203.25 30.1084 203.24 30.7298V36.6518H206.037V30.2214C206.037 29.4399 205.895 28.762 205.604 28.1971C205.331 27.6322 204.916 27.1992 204.398 26.8885Z" fill="white"/>
<path d="M213.964 30.7957L212.137 30.4285C211.667 30.3249 211.337 30.1931 211.149 30.0236C210.961 29.8542 210.857 29.6565 210.857 29.4117C210.857 29.1104 211.008 28.8656 211.3 28.6867C211.601 28.4984 211.968 28.4137 212.401 28.4137C212.731 28.4137 213.004 28.4702 213.239 28.5737C213.474 28.6773 213.663 28.8279 213.804 28.9974C213.945 29.1763 214.049 29.374 214.086 29.5906L216.647 29.4305C216.525 28.4984 216.101 27.7641 215.367 27.2274C214.632 26.6908 213.625 26.4177 212.354 26.4177C211.488 26.4177 210.744 26.5495 210.094 26.7943C209.454 27.0485 208.955 27.4157 208.597 27.877C208.24 28.3478 208.07 28.9033 208.07 29.5529C208.07 30.3061 208.315 30.9275 208.786 31.4171C209.266 31.9066 210 32.2456 210.989 32.4433L212.731 32.7916C213.173 32.8764 213.493 33.0082 213.7 33.1682C213.907 33.3283 214.02 33.5354 214.02 33.7896C214.02 34.0909 213.86 34.3357 213.569 34.524C213.267 34.7217 212.872 34.8159 212.382 34.8159C211.883 34.8159 211.478 34.7123 211.149 34.4957C210.829 34.2792 210.631 33.9685 210.546 33.5637L207.797 33.7049C207.938 34.6652 208.4 35.4278 209.191 35.9927C209.981 36.5576 211.045 36.8306 212.382 36.8306C213.258 36.8306 214.03 36.6894 214.708 36.4164C215.386 36.1339 215.913 35.7479 216.299 35.2489C216.685 34.7499 216.883 34.1662 216.883 33.5072C216.883 32.7822 216.638 32.1891 216.158 31.7466C215.677 31.3135 214.943 30.9934 213.964 30.7957Z" fill="white"/>
<path d="M273.193 0.987976H270.388V14.4419H273.193V0.987976Z" fill="white"/>
<path d="M102.03 18.7634C102.03 23.0754 98.5273 26.5778 94.2153 26.5778H86.222C84.0189 26.5778 81.3168 28.1407 80.2153 30.0519L76.4305 36.6047H94.2247C104.063 36.6047 112.066 28.602 112.066 18.7634H102.03Z" fill="#EF7918"/>
<path d="M86.4574 18.7634C86.4574 14.4513 89.9597 10.949 94.2718 10.949H102.265C104.468 10.949 107.17 9.38609 108.272 7.47486L112.057 0.922058H94.2718C84.4332 0.922058 76.4305 8.92476 76.4305 18.7634H86.4574Z" fill="#EF7918"/>
<path d="M64.9537 26.5778H56.9604C52.6578 26.5778 49.1554 23.0754 49.146 18.7634C49.146 14.4513 52.6484 10.949 56.9604 10.949H64.9537C67.1568 10.949 69.8683 9.38609 70.9698 7.47486L74.7546 0.922058H56.9604C47.1218 0.922058 39.1191 8.92476 39.1191 18.7634C39.1191 28.602 47.1218 36.6047 56.9604 36.6047H74.7546L70.9698 30.0425C69.8683 28.1501 67.1568 26.5778 64.9537 26.5778Z" fill="#EF7918"/>
<path d="M25.6651 10.7513V18.7446C25.6651 23.0472 22.1628 26.559 17.8507 26.559C13.5387 26.559 10.0363 23.0472 10.0363 18.7446V10.7513C10.0363 8.54818 8.47345 5.83667 6.56221 4.73512L0 0.950317V18.7446C0 28.5832 8.0027 36.5859 17.8413 36.5859C27.6799 36.5859 35.6826 28.5832 35.6826 18.7446V0.950317L29.1298 4.73512C27.228 5.83667 25.6651 8.53876 25.6651 10.7513Z" fill="#EF7918"/>
</svg>
