<svg width="34" height="34" viewBox="0 0 34 34" fill="none" xmlns="http://www.w3.org/2000/svg">
<path d="M21.3534 2.8335H12.6607C4.72173 2.8335 2.83331 4.72191 2.83331 12.6467V21.3394C2.83331 29.277 4.70756 31.1668 12.6466 31.1668H21.3392C29.2768 31.1668 31.1666 29.2926 31.1666 21.3536V12.6609C31.1666 4.72191 29.2924 2.8335 21.3534 2.8335ZM25.7068 23.0493H23.6399C22.8579 23.0493 22.6227 22.4161 21.2202 21.0136C19.9962 19.8335 19.4791 19.6862 19.1689 19.6862C18.7411 19.6862 18.6235 19.8037 18.6235 20.3945V22.2532C18.6235 22.7561 18.4606 23.0507 17.1473 23.0507C15.8728 22.9651 14.6369 22.5779 13.5413 21.921C12.4458 21.2641 11.522 20.3564 10.846 19.2725C9.24114 17.275 8.12448 14.9306 7.58481 12.4257C7.58481 12.1155 7.7024 11.835 8.29315 11.835H10.3586C10.8899 11.835 11.0811 12.0716 11.2894 12.617C12.2924 15.5693 14.0037 18.1363 14.6979 18.1363C14.9642 18.1363 15.0804 18.0187 15.0804 17.3543V14.3142C14.9926 12.9272 14.2559 12.8097 14.2559 12.3082C14.2654 12.1759 14.326 12.0525 14.4249 11.9642C14.5238 11.8758 14.6532 11.8295 14.7857 11.835H18.0327C18.4761 11.835 18.6235 12.056 18.6235 12.5872V16.6899C18.6235 17.1333 18.8147 17.2807 18.9479 17.2807C19.2142 17.2807 19.4196 17.1333 19.907 16.646C20.9537 15.3695 21.8089 13.9474 22.4456 12.4243C22.5107 12.2414 22.6339 12.0848 22.7963 11.9784C22.9587 11.8719 23.1515 11.8216 23.3452 11.835H25.4121C26.0312 11.835 26.163 12.1452 26.0312 12.5872C25.2797 14.2709 24.3497 15.869 23.2574 17.3543C23.035 17.6943 22.9457 17.8714 23.2574 18.2695C23.4628 18.5797 24.1867 19.1847 24.6741 19.7598C25.3823 20.4662 25.9704 21.2836 26.4151 22.1795C26.5922 22.7547 26.2961 23.0493 25.7068 23.0493Z" fill="#F46D1E"/>
</svg>
