<svg width="34" height="34" viewBox="0 0 34 34" fill="none" xmlns="http://www.w3.org/2000/svg">
<path d="M17.0014 2.8335C24.8257 2.8335 31.1681 9.17591 31.1681 17.0002C31.1681 24.8244 24.8257 31.1668 17.0014 31.1668C14.4978 31.1709 12.0383 30.5083 9.87557 29.2472L2.8404 31.1668L4.75574 24.1288C3.49362 21.9654 2.83055 19.5048 2.83474 17.0002C2.83474 9.17591 9.17715 2.8335 17.0014 2.8335ZM12.1734 10.3418L11.8901 10.3532C11.7066 10.3643 11.5274 10.4125 11.3631 10.4948C11.2094 10.5819 11.0691 10.6906 10.9466 10.8178C10.7766 10.9779 10.6802 11.1167 10.5768 11.2513C10.0528 11.9326 9.7707 12.769 9.77499 13.6285C9.77782 14.3227 9.95915 14.9984 10.2425 15.6302C10.8219 16.9081 11.7753 18.261 13.0333 19.5147C13.3365 19.8165 13.634 20.1197 13.9542 20.4016C15.5173 21.7778 17.38 22.7703 19.3942 23.3001L20.1988 23.4233C20.4609 23.4375 20.723 23.4177 20.9865 23.4049C21.3991 23.3836 21.8019 23.2719 22.1666 23.0777C22.3521 22.9821 22.5331 22.8781 22.7092 22.766C22.7092 22.766 22.7701 22.7263 22.8862 22.6385C23.0775 22.4968 23.1951 22.3962 23.3537 22.2305C23.4713 22.1087 23.5733 21.9656 23.6512 21.8027C23.7617 21.5717 23.8722 21.1312 23.9176 20.7642C23.9516 20.4837 23.9417 20.3307 23.9374 20.2358C23.9317 20.0842 23.8057 19.927 23.6682 19.8604L22.8437 19.4907C22.8437 19.4907 21.6112 18.9537 20.8576 18.6109C20.7787 18.5765 20.6942 18.5568 20.6082 18.5528C20.5113 18.5429 20.4134 18.5538 20.321 18.5848C20.2286 18.6158 20.144 18.6663 20.0727 18.7327C20.0657 18.7299 19.9707 18.8107 18.9465 20.0517C18.8877 20.1307 18.8067 20.1904 18.7139 20.2232C18.621 20.256 18.5205 20.2604 18.4252 20.2358C18.3329 20.2111 18.2424 20.1798 18.1546 20.1423C17.9789 20.0687 17.918 20.0403 17.7976 19.9893C16.9845 19.6345 16.2317 19.1551 15.5663 18.5684C15.3878 18.4126 15.2221 18.2426 15.0521 18.0782C14.4947 17.5445 14.009 16.9407 13.6071 16.2819L13.5235 16.1473C13.4635 16.0569 13.4149 15.9593 13.379 15.8569C13.3252 15.6487 13.4654 15.4815 13.4654 15.4815C13.4654 15.4815 13.8097 15.1047 13.9697 14.9007C14.1256 14.7023 14.2573 14.5097 14.3423 14.3722C14.5095 14.1031 14.5619 13.8268 14.4741 13.6129C14.0774 12.6439 13.6666 11.6792 13.2444 10.7215C13.1608 10.5317 12.9129 10.3957 12.6877 10.3687C12.6112 10.3602 12.5347 10.3517 12.4582 10.3461C12.2679 10.3366 12.0773 10.3385 11.8872 10.3517L12.172 10.3404L12.1734 10.3418Z" fill="#F46D1E"/>
</svg>
